SplineFontDB: 3.0
FontName: Renner-it-Medium
FullName: Renner* Medium
FamilyName: Renner* Medium
Weight: Medium
Copyright: This typeface is licensed under the SIL open font license.
UComments: "2016-6-10: Created with FontForge (http://fontforge.org)"
Version: 002.100
ItalicAngle: 0
UnderlinePosition: -100
UnderlineWidth: 50
Ascent: 800
Descent: 200
InvalidEm: 0
LayerCount: 2
Layer: 0 0 "Back" 1
Layer: 1 0 "Fore" 0
XUID: [1021 31 -699969567 16188444]
FSType: 0
OS2Version: 0
OS2_WeightWidthSlopeOnly: 0
OS2_UseTypoMetrics: 1
CreationTime: 1465610489
ModificationTime: 1512877880
PfmFamily: 33
TTFWeight: 500
TTFWidth: 5
LineGap: 100
VLineGap: 0
OS2TypoAscent: 800
OS2TypoAOffset: 0
OS2TypoDescent: -200
OS2TypoDOffset: 0
OS2TypoLinegap: 100
OS2WinAscent: 900
OS2WinAOffset: 0
OS2WinDescent: 300
OS2WinDOffset: 0
HheadAscent: 900
HheadAOffset: 0
HheadDescent: -200
HheadDOffset: 0
OS2CapHeight: 700
OS2XHeight: 460
OS2Vendor: 'PfEd'
Lookup: 1 0 0 "alt a" { "simple a"  } ['ss01' ('DFLT' <'dflt' > 'latn' <'dflt' > ) ]
Lookup: 258 0 0 "Lets get our kern on" { "kernin like nobodys business" [150,0,4] } ['kern' ('DFLT' <'dflt' > 'latn' <'dflt' > ) ]
MarkAttachClasses: 1
DEI: 91125
KernClass2: 15 14 "kernin like nobodys business"
 3 A L
 7 D G O Q
 5 F P Y
 5 K X Z
 1 T
 1 U
 3 V W
 9 a c g q s
 7 b e o p
 7 d i j l
 3 f t
 5 h m n
 5 k x z
 7 r v w y
 1 A
 7 C G O Q
 1 T
 1 U
 5 V W Y
 3 X Z
 11 a m n p r s
 11 b h i j k l
 11 c d e g o q
 3 f t
 7 u v w y
 3 x z
 12 period comma

StartChar: H
Encoding: 72 72 0
Width: 720
VWidth: 0
Flags: HMW
LayerCount: 2
Fore
SplineSet
117 330 m 1
 117 430 l 5
 597 430 l 5
 597 330 l 1
 117 330 l 1
540 700 m 1
 650 700 l 1
 650 0 l 1
 540 0 l 1
 540 700 l 1
70 700 m 1
 180 700 l 1
 180 0 l 1
 70 0 l 1
 70 700 l 1
EndSplineSet
EndChar

StartChar: O
Encoding: 79 79 1
Width: 810
VWidth: 0
Flags: HMW
LayerCount: 2
Fore
SplineSet
143 350 m 4
 143 197 257 83 405 83 c 4
 553 83 667 197 667 350 c 4
 667 503 558 617 405 617 c 4
 257 617 143 503 143 350 c 4
30 350 m 4
 30 564 196 720 405 720 c 4
 609 720 780 564 780 350 c 4
 780 136 614 -20 405 -20 c 4
 196 -20 30 136 30 350 c 4
EndSplineSet
EndChar

StartChar: I
Encoding: 73 73 2
Width: 250
VWidth: 0
Flags: HMW
LayerCount: 2
Fore
SplineSet
70 700 m 1
 180 700 l 1
 180 0 l 1
 70 0 l 1
 70 700 l 1
EndSplineSet
EndChar

StartChar: C
Encoding: 67 67 3
Width: 680
VWidth: 0
Flags: HMW
LayerCount: 2
Fore
SplineSet
142 350 m 0
 142 192 257 87 395 87 c 4
 494 87 571 126 620 188 c 5
 620 57 l 1
 565 9 497 -20 395 -20 c 4
 181 -20 30 136 30 350 c 0
 30 564 181 720 395 720 c 4
 497 720 565 691 620 643 c 1
 620 512 l 1
 571 574 494 613 395 613 c 0
 257 613 142 508 142 350 c 0
EndSplineSet
EndChar

StartChar: E
Encoding: 69 69 4
Width: 560
VWidth: 0
Flags: HMW
LayerCount: 2
Fore
SplineSet
142 0 m 1
 142 100 l 5
 495 100 l 5
 495 0 l 1
 142 0 l 1
142 600 m 1
 142 700 l 1
 495 700 l 1
 495 600 l 1
 142 600 l 1
142 330 m 1
 142 430 l 1
 475 430 l 1
 475 330 l 1
 142 330 l 1
70 700 m 1
 180 700 l 1
 180 0 l 1
 70 0 l 1
 70 700 l 1
EndSplineSet
EndChar

StartChar: F
Encoding: 70 70 6
Width: 510
VWidth: 0
Flags: HMW
LayerCount: 2
Fore
SplineSet
142 600 m 1
 142 700 l 1
 455 700 l 1
 455 600 l 1
 142 600 l 1
142 330 m 1
 142 430 l 1
 445 430 l 1
 445 330 l 1
 142 330 l 1
70 700 m 5
 180 700 l 1
 180 0 l 1
 70 0 l 5
 70 700 l 5
EndSplineSet
EndChar

StartChar: G
Encoding: 71 71 7
Width: 790
VWidth: 0
Flags: HMW
LayerCount: 2
Fore
SplineSet
760 360 m 1
 650 360 l 1
 650 380 l 1
 760 380 l 1
 760 360 l 1
435 280 m 1
 435 380 l 1
 650 380 l 1
 650 280 l 1
 435 280 l 1
760 360 m 1
 760 141 629 -20 405 -20 c 0
 191 -20 30 131 30 350 c 0
 30 569 191 720 405 720 c 1
 405 620 l 1
 257 620 140 513 140 350 c 0
 140 187 257 80 405 80 c 0
 563 80 650 207 650 360 c 5
 760 360 l 1
634 499 m 1
 590 573 502 620 405 620 c 1
 405 720 l 1
 544 720 650 667 710 570 c 1
 634 499 l 1
EndSplineSet
EndChar

StartChar: T
Encoding: 84 84 8
Width: 490
VWidth: 0
Flags: HMW
LayerCount: 2
Fore
SplineSet
10 600 m 1
 10 700 l 1
 480 700 l 5
 480 600 l 5
 10 600 l 1
190 700 m 1
 300 700 l 5
 300 0 l 5
 190 0 l 1
 190 700 l 1
EndSplineSet
EndChar

StartChar: L
Encoding: 76 76 9
Width: 460
VWidth: 0
Flags: HMW
LayerCount: 2
Fore
SplineSet
142 0 m 1
 142 100 l 5
 455 100 l 5
 455 0 l 1
 142 0 l 1
70 700 m 1
 180 700 l 1
 180 0 l 1
 70 0 l 1
 70 700 l 1
EndSplineSet
EndChar

StartChar: D
Encoding: 68 68 10
Width: 690
VWidth: 0
Flags: HMW
LayerCount: 2
Fore
SplineSet
142 0 m 1
 142 100 l 1
 305 100 l 1
 305 0 l 1
 142 0 l 1
142 600 m 1
 142 700 l 1
 305 700 l 1
 305 600 l 1
 142 600 l 1
70 700 m 1
 180 700 l 1
 180 0 l 1
 70 0 l 1
 70 700 l 1
305 100 m 5
 453 100 550 187 550 350 c 0
 550 513 453 600 305 600 c 5
 305 700 l 5
 519 700 660 559 660 350 c 4
 660 141 519 0 305 0 c 5
 305 100 l 5
EndSplineSet
EndChar

StartChar: Q
Encoding: 81 81 11
Width: 810
VWidth: 0
Flags: HMW
LayerCount: 2
Fore
SplineSet
143 350 m 0
 143 197 257 83 405 83 c 0
 553 83 667 197 667 350 c 0
 667 503 558 617 405 617 c 0
 257 617 143 503 143 350 c 0
30 350 m 0
 30 564 196 720 405 720 c 0
 609 720 780 564 780 350 c 0
 780 136 614 -20 405 -20 c 0
 196 -20 30 136 30 350 c 0
374 300 m 1
 519 300 l 1
 829 0 l 1
 684 0 l 1
 374 300 l 1
EndSplineSet
EndChar

StartChar: A
Encoding: 65 65 12
Width: 710
VWidth: 0
Flags: HMW
LayerCount: 2
Fore
SplineSet
172 190 m 1
 172 290 l 1
 542 290 l 1
 542 190 l 1
 172 190 l 1
305 615 m 1
 355 740 l 1
 710 0 l 1
 590 0 l 5
 305 615 l 1
355 740 m 1
 405 615 l 1
 120 0 l 1
 0 0 l 1
 355 740 l 1
EndSplineSet
EndChar

StartChar: R
Encoding: 82 82 13
Width: 575
VWidth: 0
Flags: HMW
LayerCount: 2
Fore
SplineSet
195 350 m 1
 325 350 l 1
 565 0 l 1
 435 0 l 1
 195 350 l 1
285 270 m 5
 285 370 l 5
 364 370 413 409 413 485 c 4
 413 561 364 600 285 600 c 5
 285 700 l 5
 420 700 523 614 523 485 c 4
 523 356 420 270 285 270 c 5
142 270 m 5
 142 370 l 5
 285 370 l 5
 285 270 l 5
 142 270 l 5
142 600 m 5
 142 700 l 5
 285 700 l 5
 285 600 l 5
 142 600 l 5
70 700 m 1
 180 700 l 1
 180 0 l 1
 70 0 l 1
 70 700 l 1
EndSplineSet
EndChar

StartChar: V
Encoding: 86 86 14
Width: 700
VWidth: 0
Flags: HMW
LayerCount: 2
Fore
SplineSet
400 85 m 1
 350 -40 l 1
 -5 700 l 1
 115 700 l 1
 400 85 l 1
350 -40 m 1
 300 85 l 1
 585 700 l 5
 705 700 l 1
 350 -40 l 1
EndSplineSet
EndChar

StartChar: M
Encoding: 77 77 15
Width: 800
VWidth: 0
Flags: HMW
LayerCount: 2
Fore
SplineSet
115 540 m 1
 115 745 l 1
 435 200 l 5
 400 65 l 1
 115 540 l 1
115 745 m 1
 190 515 l 1
 135 0 l 1
 20 0 l 1
 115 745 l 1
610 515 m 1
 685 745 l 1
 780 0 l 1
 665 0 l 1
 610 515 l 1
685 745 m 1
 685 540 l 1
 400 65 l 1
 365 200 l 5
 685 745 l 1
EndSplineSet
EndChar

StartChar: W
Encoding: 87 87 16
Width: 1010
VWidth: 0
Flags: HMW
LayerCount: 2
Fore
SplineSet
755 115 m 1
 720 -45 l 1
 470 565 l 5
 505 745 l 1
 755 115 l 1
720 -45 m 1
 685 140 l 1
 885 700 l 1
 1010 700 l 1
 720 -45 l 1
325 140 m 1
 290 -45 l 1
 0 700 l 1
 125 700 l 1
 325 140 l 1
290 -45 m 1
 255 115 l 1
 505 745 l 1
 540 565 l 5
 290 -45 l 1
EndSplineSet
EndChar

StartChar: N
Encoding: 78 78 17
Width: 785
VWidth: 0
Flags: HMW
LayerCount: 2
Fore
SplineSet
75 590 m 1
 70 745 l 1
 710 110 l 5
 715 -45 l 5
 75 590 l 1
605 700 m 1
 715 700 l 1
 715 -45 l 5
 605 75 l 5
 605 700 l 1
70 745 m 1
 180 625 l 1
 180 0 l 1
 70 0 l 1
 70 745 l 1
EndSplineSet
EndChar

StartChar: a
Encoding: 97 97 18
Width: 515
VWidth: 0
Flags: HMW
LayerCount: 2
Fore
SplineSet
350 330 m 5
 455 330 l 5
 455 0 l 5
 350 0 l 5
 350 330 l 5
111 338 m 5
 72 419 l 5
 106 444 170 480 253 480 c 4
 368 480 455 429 455 330 c 5
 350 330 l 5
 350 370 303 383 253 383 c 4
 187 383 133 354 111 338 c 5
126 140 m 4
 126 94 178 71 223 71 c 4
 303 71 350 94 350 180 c 5
 366 130 l 5
 366 41 288 -20 193 -20 c 4
 108 -20 25 21 25 130 c 4
 25 237 120 291 231 291 c 4
 309 291 359 264 383 240 c 5
 383 182 l 5
 335 207 293 215 245 215 c 4
 171 215 126 178 126 140 c 4
EndSplineSet
Substitution2: "simple a" a.alt
EndChar

StartChar: X
Encoding: 88 88 19
Width: 605
VWidth: 0
Flags: HMW
LayerCount: 2
Fore
SplineSet
30 700 m 1
 155 700 l 1
 600 0 l 5
 475 0 l 1
 30 700 l 1
460 700 m 1
 585 700 l 5
 130 0 l 1
 5 0 l 1
 460 700 l 1
EndSplineSet
EndChar

StartChar: K
Encoding: 75 75 20
Width: 601
VWidth: 0
Flags: HMW
LayerCount: 2
Fore
SplineSet
145 380 m 1
 276 380 l 5
 601 0 l 5
 470 0 l 1
 145 380 l 1
455 700 m 1
 586 700 l 5
 281 370 l 5
 150 370 l 1
 455 700 l 1
70 700 m 1
 180 700 l 1
 180 0 l 1
 70 0 l 1
 70 700 l 1
EndSplineSet
EndChar

StartChar: Y
Encoding: 89 89 21
Width: 565
VWidth: 0
Flags: HMW
LayerCount: 2
Fore
SplineSet
228 360 m 1
 333 360 l 1
 333 0 l 1
 228 0 l 1
 228 360 l 1
-5 700 m 1
 110 700 l 1
 315 325 l 1
 240 260 l 1
 -5 700 l 1
455 700 m 1
 570 700 l 5
 315 260 l 1
 240 325 l 1
 455 700 l 1
EndSplineSet
EndChar

StartChar: B
Encoding: 66 66 22
Width: 573
VWidth: 0
Flags: HMW
LayerCount: 2
Fore
SplineSet
265 370 m 1
 265 430 l 1
 345 430 378 458 378 515 c 0
 378 571 345 600 265 600 c 1
 265 700 l 1
 400 700 488 629 488 520 c 0
 488 411 400 370 265 370 c 1
285 0 m 1
 285 100 l 1
 365 100 418 139 418 215 c 4
 418 291 365 330 285 330 c 1
 285 400 l 1
 420 400 528 339 528 210 c 0
 528 81 420 0 285 0 c 1
142 0 m 1
 142 100 l 1
 285 100 l 1
 285 0 l 1
 142 0 l 1
142 600 m 1
 142 700 l 1
 265 700 l 1
 265 600 l 1
 142 600 l 1
142 330 m 1
 142 430 l 1
 285 430 l 1
 285 330 l 1
 142 330 l 1
70 700 m 1
 180 700 l 1
 180 0 l 1
 70 0 l 1
 70 700 l 1
EndSplineSet
EndChar

StartChar: Z
Encoding: 90 90 23
Width: 570
VWidth: 0
Flags: HMW
LayerCount: 2
Fore
SplineSet
15 0 m 1
 100 100 l 1
 520 100 l 1
 520 0 l 1
 15 0 l 1
50 600 m 1
 50 700 l 1
 555 700 l 1
 470 600 l 1
 50 600 l 1
440 700 m 1
 555 700 l 1
 130 0 l 5
 15 0 l 1
 440 700 l 1
EndSplineSet
EndChar

StartChar: o
Encoding: 111 111 24
Width: 566
VWidth: 0
Flags: HMW
LayerCount: 2
Fore
SplineSet
30 230 m 4
 30 379 143 480 283 480 c 4
 423 480 536 379 536 230 c 4
 536 81 423 -20 283 -20 c 4
 143 -20 30 81 30 230 c 4
136 230 m 4
 136 139 198 75 283 75 c 4
 368 75 430 139 430 230 c 4
 430 321 368 385 283 385 c 4
 198 385 136 321 136 230 c 4
EndSplineSet
EndChar

StartChar: J
Encoding: 74 74 25
Width: 245
VWidth: 0
Flags: HMW
LayerCount: 2
Fore
SplineSet
175 -60 m 5
 70 -30 l 5
 70 700 l 5
 175 700 l 5
 175 -60 l 5
-77 -74 m 5
 -63 -97 -29 -120 7 -120 c 4
 37 -120 70 -96 70 -30 c 5
 175 -60 l 5
 175 -169 116 -220 12 -220 c 4
 -61 -220 -111 -185 -126 -165 c 5
 -77 -74 l 5
EndSplineSet
EndChar

StartChar: t
Encoding: 116 116 26
Width: 255
VWidth: 0
Flags: HMW
LayerCount: 2
Fore
SplineSet
0 460 m 1
 255 460 l 1
 255 365 l 5
 0 365 l 5
 0 460 l 1
75 620 m 1
 180 620 l 1
 180 0 l 1
 75 0 l 1
 75 620 l 1
EndSplineSet
EndChar

StartChar: d
Encoding: 100 100 27
Width: 595
VWidth: 0
Flags: HMW
LayerCount: 2
Fore
SplineSet
425 780 m 5
 530 780 l 5
 530 0 l 5
 425 0 l 5
 425 780 l 5
30 230 m 4
 30 389 138 480 263 480 c 4
 378 480 461 379 461 230 c 4
 461 81 378 -20 263 -20 c 4
 138 -20 30 71 30 230 c 4
136 230 m 4
 136 134 198 75 283 75 c 4
 353 75 425 124 425 230 c 4
 425 336 353 385 283 385 c 4
 198 385 136 326 136 230 c 4
EndSplineSet
EndChar

StartChar: l
Encoding: 108 108 28
Width: 235
VWidth: 0
Flags: HMW
LayerCount: 2
Fore
SplineSet
65 780 m 1
 170 780 l 5
 170 0 l 5
 65 0 l 1
 65 780 l 1
EndSplineSet
EndChar

StartChar: i
Encoding: 105 105 29
Width: 226
VWidth: 0
Flags: HMW
LayerCount: 2
Fore
SplineSet
45 640 m 0
 45 676 75 705 113 705 c 0
 151 705 181 676 181 640 c 0
 181 604 151 575 113 575 c 0
 75 575 45 604 45 640 c 0
60 460 m 1
 166 460 l 1
 166 0 l 1
 60 0 l 1
 60 460 l 1
EndSplineSet
EndChar

StartChar: r
Encoding: 114 114 30
Width: 368
VWidth: 0
Flags: HMW
LayerCount: 2
Fore
SplineSet
175 460 m 1
 175 0 l 1
 65 0 l 1
 65 460 l 1
 175 460 l 1
319 362 m 1
 297 378 278 385 252 385 c 4
 197 385 175 346 175 280 c 1
 139 280 l 1
 139 389 212 480 277 480 c 0
 310 480 339 473 363 448 c 1
 319 362 l 1
EndSplineSet
EndChar

StartChar: c
Encoding: 99 99 31
Width: 493
VWidth: 0
Flags: HMW
LayerCount: 2
Fore
SplineSet
136 230 m 0
 136 144 193 78 293 78 c 0
 366.930664062 78 422.088867188 116.559570312 443 161.399414062 c 1
 443 28.7998046875 l 1
 411.249023438 -5.310546875 345.560546875 -20 283 -20 c 0
 128 -20 30 81 30 230 c 0
 30 379 128 480 283 480 c 0
 345.560546875 480 411.249023438 464.310546875 443 431.200195312 c 1
 443 298.600585938 l 1
 422.088867188 343.440429688 356.930664062 382 293 382 c 4
 193 382 136 316 136 230 c 0
EndSplineSet
EndChar

StartChar: b
Encoding: 98 98 32
Width: 595
VWidth: 0
Flags: HMW
LayerCount: 2
Fore
SplineSet
170 780 m 1
 170 0 l 1
 65 0 l 1
 65 780 l 1
 170 780 l 1
565 230 m 4
 565 71 457 -20 332 -20 c 4
 217 -20 134 81 134 230 c 4
 134 379 217 480 332 480 c 4
 457 480 565 389 565 230 c 4
459 230 m 4
 459 326 397 385 312 385 c 4
 242 385 170 336 170 230 c 4
 170 124 242 75 312 75 c 4
 397 75 459 134 459 230 c 4
EndSplineSet
EndChar

StartChar: p
Encoding: 112 112 33
Width: 595
VWidth: 0
Flags: HMW
LayerCount: 2
Fore
SplineSet
170 -220 m 1
 65 -220 l 1
 65 460 l 1
 170 460 l 1
 170 -220 l 1
565 230 m 0
 565 71 457 -20 332 -20 c 0
 217 -20 134 81 134 230 c 0
 134 379 217 480 332 480 c 0
 457 480 565 389 565 230 c 0
459 230 m 0
 459 326 397 385 312 385 c 0
 242 385 170 336 170 230 c 0
 170 124 242 75 312 75 c 0
 397 75 459 134 459 230 c 0
EndSplineSet
EndChar

StartChar: q
Encoding: 113 113 34
Width: 595
VWidth: 0
Flags: HMW
LayerCount: 2
Fore
SplineSet
425 -220 m 1
 425 460 l 1
 530 460 l 1
 530 -220 l 1
 425 -220 l 1
30 230 m 0
 30 389 138 480 263 480 c 0
 378 480 461 379 461 230 c 0
 461 81 378 -20 263 -20 c 0
 138 -20 30 71 30 230 c 0
136 230 m 0
 136 134 198 75 283 75 c 0
 353 75 425 124 425 230 c 0
 425 336 353 385 283 385 c 0
 198 385 136 326 136 230 c 0
EndSplineSet
EndChar

StartChar: h
Encoding: 104 104 35
Width: 540
VWidth: 0
Flags: HMW
LayerCount: 2
Fore
SplineSet
480 290 m 1
 480 0 l 1
 375 0 l 1
 375 280 l 1
 480 290 l 1
170 780 m 1
 170 0 l 1
 65 0 l 1
 65 780 l 1
 170 780 l 1
480 290 m 1
 375 280 l 1
 375 356 342 385 287 385 c 0
 227 385 170 346 170 280 c 1
 134 280 l 1
 134 389 232 480 317 480 c 4
 412 480 480 429 480 290 c 1
EndSplineSet
EndChar

StartChar: n
Encoding: 110 110 36
Width: 540
VWidth: 0
Flags: HMW
LayerCount: 2
Fore
SplineSet
480 290 m 5
 480 0 l 5
 375 0 l 5
 375 280 l 5
 480 290 l 5
170 460 m 5
 170 0 l 5
 65 0 l 5
 65 460 l 5
 170 460 l 5
480 290 m 5
 375 280 l 5
 375 356 342 385 287 385 c 4
 227 385 170 346 170 280 c 5
 134 280 l 5
 134 389 232 480 317 480 c 4
 412 480 480 429 480 290 c 5
EndSplineSet
EndChar

StartChar: m
Encoding: 109 109 37
Width: 810
VWidth: 0
Flags: HMW
LayerCount: 2
Fore
SplineSet
750 300 m 1
 750 0 l 1
 645 0 l 1
 645 280 l 1
 750 300 l 1
750 300 m 1
 645 280 l 1
 645 346 622 385 567 385 c 0
 497 385 460 336 460 280 c 1
 414 280 l 1
 414 389 492 480 597 480 c 0
 692 480 750 419 750 300 c 1
460 290 m 1
 460 0 l 1
 355 0 l 1
 355 280 l 1
 460 290 l 1
170 460 m 1
 170 0 l 1
 65 0 l 1
 65 460 l 1
 170 460 l 1
460 290 m 1
 355 280 l 1
 355 346 332 385 277 385 c 0
 207 385 170 336 170 280 c 1
 134 280 l 1
 134 389 212 480 307 480 c 0
 402 480 460 409 460 290 c 1
EndSplineSet
EndChar

StartChar: k
Encoding: 107 107 38
Width: 485
VWidth: 0
Flags: HMW
LayerCount: 2
Fore
SplineSet
140 270 m 5
 270 270 l 5
 490 0 l 5
 360 0 l 5
 140 270 l 5
340 460 m 5
 470 460 l 5
 270 270 l 5
 140 270 l 5
 340 460 l 5
65 780 m 5
 170 780 l 5
 170 0 l 5
 65 0 l 5
 65 780 l 5
EndSplineSet
EndChar

StartChar: u
Encoding: 117 117 39
Width: 540
VWidth: 0
Flags: HMW
LayerCount: 2
Fore
SplineSet
60 170 m 1
 60 460 l 1
 165 460 l 1
 165 180 l 1
 60 170 l 1
370 0 m 1
 370 460 l 1
 475 460 l 1
 475 0 l 1
 370 0 l 1
60 170 m 1
 165 180 l 1
 165 104 198 75 253 75 c 0
 313 75 370 114 370 180 c 1
 406 180 l 1
 406 71 308 -20 223 -20 c 4
 128 -20 60 31 60 170 c 1
EndSplineSet
EndChar

StartChar: e
Encoding: 101 101 40
Width: 535
VWidth: 0
Flags: HMW
LayerCount: 2
Fore
SplineSet
30 230 m 5
 60 270 l 5
 156 270 l 5
 146 230 l 5
 30 230 l 5
136 205 m 5
 136 289 l 5
 484 289 l 5
 503 205 l 5
 136 205 l 5
503 205 m 5
 395 250 l 5
 395 336 353 390 273 390 c 4
 203 390 138 336 138 260 c 5
 30 230 l 5
 30 369 128 480 273 480 c 4
 413 480 505 384 505 239 c 4
 505 231 505 218 503 205 c 5
30 230 m 5
 136 230 l 5
 136 134 195 75 273 75 c 4
 330 75 384 96 415 146 c 5
 494 97 l 5
 448 27 382 -20 273 -20 c 4
 118 -20 30 91 30 230 c 5
EndSplineSet
EndChar

StartChar: g
Encoding: 103 103 41
Width: 595
VWidth: 0
Flags: HMW
LayerCount: 2
Fore
SplineSet
30 230 m 0
 30 389 138 480 263 480 c 0
 378 480 461 379 461 230 c 0
 461 81 378 -20 263 -20 c 0
 138 -20 30 71 30 230 c 0
136 230 m 0
 136 134 198 75 283 75 c 0
 353 75 425 124 425 230 c 0
 425 336 353 385 283 385 c 0
 198 385 136 326 136 230 c 0
34 -30 m 5
 140 -30 l 1
 140 -86 187 -140 277 -140 c 0
 347 -140 425 -96 425 10 c 1
 530 10 l 1
 530 -159 402 -240 277 -240 c 0
 132 -240 34 -159 34 -30 c 5
425 10 m 1
 425 460 l 1
 530 460 l 1
 530 10 l 1
 425 10 l 1
EndSplineSet
EndChar

StartChar: f
Encoding: 102 102 42
Width: 314
VWidth: 0
Flags: HMW
LayerCount: 2
Fore
SplineSet
20 460 m 5
 295 460 l 5
 295 365 l 5
 20 365 l 5
 20 460 l 5
75 630 m 5
 180 620 l 5
 180 0 l 5
 75 0 l 5
 75 630 l 5
283 670 m 5
 269 693 254 700 238 700 c 4
 208 700 180 676 180 620 c 5
 75 630 l 5
 75 739 129 800 233 800 c 4
 286 800 319 773 334 753 c 5
 283 670 l 5
EndSplineSet
EndChar

StartChar: s
Encoding: 115 115 43
Width: 433
VWidth: 0
Flags: HMW
LayerCount: 2
Fore
SplineSet
305 339 m 1
 285 367 251 389 214 389 c 0
 182 389 154 375 154 349 c 1
 49 349 l 1
 49 435 129 480 213 480 c 0
 296 480 371 431 389 380 c 1
 305 339 l 1
49 349 m 1
 154 349 l 1
 154 322.373046875 193.590820312 303.1015625 256 280.337890625 c 0
 320.810546875 256.698242188 398 217.497070312 398 120 c 1
 290 123 l 1
 290 163.408203125 250.233398438 183.537109375 196 200.897460938 c 0
 132.65625 221.173828125 49 262.387695312 49 349 c 1
111 161 m 1
 123 105 173 75 220 75 c 0
 265 75 290 93 290 123 c 1
 398 120 l 1
 398 31 314 -20 215 -20 c 4
 120 -20 39 48 25 123 c 1
 111 161 l 1
EndSplineSet
EndChar

StartChar: y
Encoding: 121 121 44
Width: 480
VWidth: 0
Flags: HMW
LayerCount: 2
Fore
SplineSet
212.94140625 114 m 5
 273 114 l 4
 490 460 l 1
 190 -220 l 1
 70 -220 l 1
 212.94140625 114 l 4
 212.94140625 114 l 5
370 460 m 1
 490 460 l 1
 255 -15 l 1
 220 85 l 1
 370 460 l 1
-10 460 m 1
 110 460 l 1
 260 85 l 1
 195 -15 l 1
 -10 460 l 1
EndSplineSet
EndChar

StartChar: w
Encoding: 119 119 45
Width: 695
VWidth: 0
Flags: HMW
LayerCount: 2
Fore
SplineSet
590 460 m 1
 700 460 l 1
 495 -45 l 1
 465 115 l 1
 590 460 l 1
315 345 m 5
 345 505 l 1
 515 115 l 1
 495 -45 l 1
 315 345 l 5
345 505 m 1
 375 345 l 5
 205 -45 l 1
 185 115 l 1
 345 505 l 1
-5 460 m 1
 105 460 l 1
 235 115 l 1
 205 -45 l 1
 -5 460 l 1
EndSplineSet
EndChar

StartChar: v
Encoding: 118 118 46
Width: 460
VWidth: 0
Flags: HMW
LayerCount: 2
Fore
SplineSet
350 460 m 1
 465 460 l 1
 230 -45 l 1
 210 120 l 5
 350 460 l 1
-5 460 m 1
 110 460 l 1
 250 120 l 5
 230 -45 l 1
 -5 460 l 1
EndSplineSet
EndChar

StartChar: x
Encoding: 120 120 47
Width: 470
VWidth: 0
Flags: HMW
LayerCount: 2
Fore
SplineSet
5 460 m 5
 125 460 l 1
 475 0 l 1
 355 0 l 1
 5 460 l 5
345 460 m 1
 465 460 l 1
 115 0 l 1
 -5 0 l 5
 345 460 l 1
EndSplineSet
EndChar

StartChar: z
Encoding: 122 122 48
Width: 465
VWidth: 0
Flags: HMW
LayerCount: 2
Fore
SplineSet
90 95 m 1
 430 95 l 1
 430 0 l 1
 10 0 l 1
 90 95 l 1
40 460 m 1
 460 460 l 1
 390 365 l 1
 40 365 l 1
 40 460 l 1
345 460 m 1
 460 460 l 1
 125 0 l 5
 10 0 l 1
 345 460 l 1
EndSplineSet
EndChar

StartChar: j
Encoding: 106 106 49
Width: 226
VWidth: 0
Flags: HMW
LayerCount: 2
Fore
SplineSet
45 640 m 0
 45 676 75 705 113 705 c 0
 151 705 181 676 181 640 c 0
 181 604 151 575 113 575 c 0
 75 575 45 604 45 640 c 0
-43 -110 m 1
 -29 -133 -14 -140 2 -140 c 0
 32 -140 60 -116 60 -60 c 1
 166 -70 l 1
 166 -179 111 -240 7 -240 c 0
 -46 -240 -79 -213 -94 -193 c 1
 -43 -110 l 1
166 -70 m 1
 60 -60 l 1
 60 460 l 1
 166 460 l 1
 166 -70 l 1
EndSplineSet
EndChar

StartChar: P
Encoding: 80 80 50
Width: 548
VWidth: 0
Flags: HMW
LayerCount: 2
Fore
SplineSet
285 270 m 1
 285 370 l 1
 364 370 413 409 413 485 c 0
 413 561 364 600 285 600 c 1
 285 700 l 1
 420 700 523 614 523 485 c 0
 523 356 420 270 285 270 c 1
142 270 m 1
 142 370 l 1
 285 370 l 1
 285 270 l 1
 142 270 l 1
142 600 m 1
 142 700 l 1
 285 700 l 1
 285 600 l 1
 142 600 l 1
70 700 m 1
 180 700 l 1
 180 0 l 1
 70 0 l 1
 70 700 l 1
EndSplineSet
EndChar

StartChar: U
Encoding: 85 85 51
Width: 636
VWidth: 0
Flags: HMW
LayerCount: 2
Fore
SplineSet
461 700 m 1
 571 700 l 1
 571 230 l 1
 461 230 l 1
 461 700 l 1
65 700 m 1
 175 700 l 1
 175 230 l 1
 65 230 l 1
 65 700 l 1
318 -20 m 0
 173 -20 65 71 65 230 c 1
 175 230 l 1
 175 144 228 80 318 80 c 0
 408 80 461 144 461 230 c 1
 571 230 l 1
 571 71 463 -20 318 -20 c 0
EndSplineSet
EndChar

StartChar: S
Encoding: 83 83 52
Width: 577
VWidth: 0
Flags: HMW
LayerCount: 2
Fore
SplineSet
439 504 m 1
 409 562 373 619 293 619 c 0
 233 619 198 585 198 534 c 1
 84 540 l 1
 84 646 178 720 302 720 c 0
 435 720 496 637 524 566 c 1
 439 504 l 1
84 540 m 1
 198 534 l 1
 198 468.373046875 268.682617188 439.938476562 349 411.337890625 c 0
 422.404296875 385.19921875 537 327.497070312 537 190 c 1
 424 183 l 1
 424 273.408203125 341.852539062 301.27734375 262 329.897460938 c 0
 192.43359375 354.831054688 84 413.387695312 84 540 c 1
123 236 m 1
 165 140 218 80 305 80 c 0
 375 80 424 123 424 183 c 1
 537 190 l 1
 537 61 450 -20 301 -20 c 4
 166 -20 79 63 35 178 c 1
 123 236 l 1
EndSplineSet
EndChar

StartChar: at
Encoding: 64 64 53
Width: 770
VWidth: 0
Flags: HMW
LayerCount: 2
Fore
SplineSet
485 520 m 1
 579 520 l 1
 538 279 l 2
 536.85546875 272.0234375 536 260 536 252 c 0
 536 228 543 216 566 216 c 0
 596 216 655 274 655 390 c 1
 745 390 l 1
 745 221 646 130 551 130 c 0
 480 130 441 194 451 260 c 0
 452.647460938 270.875976562 437 251 439 260 c 2
 485 520 l 1
276 310 m 0
 276 264 300 225 348 225 c 0
 398 225 455 264 455 370 c 0
 455 431 418 455 378 455 c 0
 323 455 276 396 276 310 c 0
180 310 m 0
 180 449 283 540 378 540 c 0
 463 540 491 459 491 370 c 0
 491 231 423 140 328 140 c 0
 243 140 180 211 180 310 c 0
25 320 m 0
 25 539 191 720 415 720 c 0
 619 720 745 549 745 390 c 1
 655 390 l 1
 655 523 573 640 415 640 c 0
 227 640 115 503 115 320 c 0
 115 157 207 60 355 60 c 1
 365 -20 l 5
 151 -20 25 121 25 320 c 0
355 60 m 1
 445 60 500 65 566 107 c 1
 619 36 l 1
 559 7 509 -20 365 -20 c 5
 355 60 l 1
EndSplineSet
EndChar

StartChar: period
Encoding: 46 46 54
Width: 276
VWidth: 0
Flags: HMW
LayerCount: 2
Fore
SplineSet
70 40 m 4
 70 76 100 105 138 105 c 4
 176 105 206 76 206 40 c 4
 206 4 176 -25 138 -25 c 4
 100 -25 70 4 70 40 c 4
EndSplineSet
EndChar

StartChar: comma
Encoding: 44 44 55
Width: 308
VWidth: 0
Flags: HMW
LayerCount: 2
Fore
SplineSet
138 110 m 5
 233 76 l 1
 118 -174 l 1
 50 -149 l 5
 138 110 l 5
EndSplineSet
EndChar

StartChar: exclam
Encoding: 33 33 59
Width: 300
VWidth: 0
Flags: HMW
LayerCount: 2
Fore
SplineSet
85 700 m 1
 215 700 l 1
 190 200 l 1
 110 200 l 1
 85 700 l 1
EndSplineSet
Refer: 54 46 N 1 0 0 1 12 0 2
EndChar

StartChar: quotesingle
Encoding: 39 39 60
Width: 295
VWidth: 0
Flags: HMW
LayerCount: 2
Fore
SplineSet
140 700 m 1
 255 700 l 5
 160 400 l 1
 95 400 l 1
 140 700 l 1
EndSplineSet
EndChar

StartChar: numbersign
Encoding: 35 35 61
Width: 605
VWidth: 0
Flags: HMW
LayerCount: 2
Fore
SplineSet
65 430 m 1
 65 515 l 1
 560 515 l 1
 560 430 l 1
 65 430 l 1
45 190 m 1
 45 275 l 5
 540 275 l 5
 540 190 l 1
 45 190 l 1
445 700 m 1
 540 700 l 1
 370 0 l 1
 275 0 l 1
 445 700 l 1
235 700 m 1
 330 700 l 1
 160 0 l 1
 65 0 l 1
 235 700 l 1
EndSplineSet
EndChar

StartChar: hyphen
Encoding: 45 45 62
Width: 210
VWidth: 0
Flags: HMW
LayerCount: 2
Fore
SplineSet
5 190 m 1
 5 285 l 1
 205 285 l 1
 205 190 l 1
 5 190 l 1
EndSplineSet
EndChar

StartChar: bar
Encoding: 124 124 64
Width: 299
VWidth: 0
Flags: HMW
LayerCount: 2
Fore
SplineSet
100 785 m 1
 199 785 l 5
 199 -215 l 5
 100 -215 l 1
 100 785 l 1
EndSplineSet
EndChar

StartChar: zero
Encoding: 48 48 65
Width: 610
VWidth: 0
Flags: HMW
LayerCount: 2
Fore
SplineSet
140 350 m 0
 140 187 207 80 305 80 c 4
 403 80 470 187 470 350 c 0
 470 513 403 620 305 620 c 4
 207 620 140 513 140 350 c 0
30 350 m 4
 30 569 151 720 305 720 c 0
 459 720 580 569 580 350 c 4
 580 131 459 -20 305 -20 c 0
 151 -20 30 131 30 350 c 4
EndSplineSet
EndChar

StartChar: one
Encoding: 49 49 66
Width: 485
VWidth: 0
Flags: HMW
LayerCount: 2
Fore
SplineSet
100 552 m 5
 100 660 l 5
 365 725 l 5
 310 617 l 5
 100 552 l 5
255 685 m 5
 365 725 l 5
 365 0 l 5
 255 0 l 5
 255 685 l 5
EndSplineSet
EndChar

StartChar: two
Encoding: 50 50 67
Width: 574
VWidth: 0
Flags: HMW
LayerCount: 2
Fore
SplineSet
64 0 m 1
 134 100 l 1
 544 100 l 5
 544 0 l 5
 64 0 l 1
544 516 m 1
 436 516 l 1
 436 574 397 621 317 621 c 0
 227 621 170 556 170 460 c 1
 65 460 l 1
 65 599 162 721 317 721 c 0
 472 721 544 615 544 516 c 1
443 294 m 2
 143 0 l 1
 20 0 l 1
 349 335 l 2
 413.084960938 400.25390625 436 450 436 516 c 1
 544 516 l 1
 544 409 500.935546875 350.776367188 443 294 c 2
EndSplineSet
EndChar

StartChar: four
Encoding: 52 52 68
Width: 618
VWidth: 0
Flags: HMW
LayerCount: 2
Fore
SplineSet
10 120 m 1
 80 215 l 1
 588 215 l 1
 588 120 l 1
 10 120 l 1
120 120 m 5
 10 120 l 1
 478 760 l 1
 478 610 l 1
 120 120 l 5
368 550 m 1
 478 760 l 1
 478 0 l 1
 368 0 l 1
 368 550 l 1
EndSplineSet
EndChar

StartChar: slash
Encoding: 47 47 69
Width: 635
VWidth: 0
Flags: HMW
LayerCount: 2
Fore
SplineSet
515 700 m 1
 620 700 l 1
 120 -150 l 1
 15 -150 l 1
 515 700 l 1
EndSplineSet
EndChar

StartChar: backslash
Encoding: 92 92 70
Width: 535
VWidth: 0
Flags: HMW
LayerCount: 2
Fore
SplineSet
15 700 m 1
 120 700 l 1
 520 0 l 1
 415 0 l 1
 15 700 l 1
EndSplineSet
EndChar

StartChar: eight
Encoding: 56 56 71
Width: 546
VWidth: 0
Flags: HMW
LayerCount: 2
Fore
SplineSet
65 526 m 0
 65 645 158 720 273 720 c 0
 388 720 481 645 481 526 c 4
 481 407 388 355 273 355 c 0
 158 355 65 407 65 526 c 0
171 516 m 0
 171 455 208 415 273 415 c 0
 338 415 375 455 375 516 c 0
 375 587 328 625 273 625 c 0
 218 625 171 587 171 516 c 0
40 195 m 4
 40 324 158 390 273 390 c 0
 388 390 506 324 506 195 c 4
 506 66 408 -20 273 -20 c 0
 138 -20 40 66 40 195 c 4
146 205 m 0
 146 124 203 75 273 75 c 0
 343 75 400 124 400 205 c 0
 400 276 343 330 273 330 c 0
 203 330 146 276 146 205 c 0
EndSplineSet
EndChar

StartChar: three
Encoding: 51 51 73
Width: 546
VWidth: 0
Flags: HMW
LayerCount: 2
Fore
SplineSet
253 345 m 1
 253 410 l 1
 363 410 380 455 380 516 c 0
 380 577 353 620 288 620 c 0
 223 620 181 592 181 526 c 1
 80 526 l 1
 80 640 168 720 288 720 c 0
 408 720 486 630 486 526 c 0
 486 392 408 345 253 345 c 1
273 -20 m 0
 133 -20 50 71 50 185 c 1
 156 185 l 5
 156 124 208 80 273 80 c 0
 348 80 400 114 400 195 c 0
 400 266 363 315 253 315 c 1
 253 380 l 1
 408 380 506 329 506 185 c 0
 506 61 413 -20 273 -20 c 0
EndSplineSet
EndChar

StartChar: five
Encoding: 53 53 74
Width: 579
VWidth: 0
Flags: HMW
LayerCount: 2
Fore
SplineSet
172 700 m 1
 522 700 l 1
 522 605 l 1
 172 605 l 1
 172 700 l 1
172 700 m 1
 282 700 l 1
 210 417 l 1
 79 307 l 1
 172 700 l 1
539 230 m 1
 426 230 l 1
 426 331 374 380 289 380 c 4
 212 380 150 357 79 307 c 1
 170 403 l 1
 216 463 280 475 339 475 c 0
 444 475 539 389 539 230 c 1
539 230 m 1
 539 51 414 -20 279 -20 c 0
 150 -20 66 47 20 127 c 1
 107 191 l 1
 138 131 202 80 279 80 c 0
 354 80 426 129 426 230 c 1
 539 230 l 1
EndSplineSet
EndChar

StartChar: six
Encoding: 54 54 75
Width: 586
VWidth: 0
Flags: HMW
LayerCount: 2
Fore
SplineSet
325 700 m 5
 449 700 l 5
 203 375 l 5
 99 385 l 5
 325 700 l 5
40 230 m 4
 40 286.768554688 72.185546875 347.556640625 99 385 c 4
 120.75390625 415.376953125 157.288085938 386.671875 186 402.0078125 c 5
 230.03515625 430.188476562 250.6796875 463 334 463 c 4
 443 463 546 359 546 230 c 4
 546 81 433 -20 293 -20 c 4
 153 -20 40 81 40 230 c 4
149 230 m 4
 149 139 208 80 293 80 c 4
 378 80 437 139 437 230 c 4
 437 321 378 382 293 382 c 4
 208 382 149 321 149 230 c 4
EndSplineSet
EndChar

StartChar: seven
Encoding: 55 55 76
Width: 525
VWidth: 0
Flags: HMW
LayerCount: 2
Fore
SplineSet
30 600 m 1
 30 700 l 1
 520 700 l 1
 450 600 l 1
 30 600 l 1
406 700 m 1
 520 700 l 1
 210 0 l 5
 96 0 l 1
 406 700 l 1
EndSplineSet
EndChar

StartChar: plus
Encoding: 43 43 77
Width: 640
VWidth: 0
Flags: HMW
LayerCount: 2
Fore
SplineSet
65 205 m 1
 65 305 l 1
 575 305 l 1
 575 205 l 1
 65 205 l 1
265 510 m 5
 375 510 l 5
 375 0 l 1
 265 0 l 1
 265 510 l 5
EndSplineSet
EndChar

StartChar: percent
Encoding: 37 37 79
Width: 811
VWidth: 0
Flags: HMW
LayerCount: 2
Fore
SplineSet
521 150 m 4
 521 99 556 55 608 55 c 4
 660 55 695 99 695 150 c 4
 695 201 660 245 608 245 c 4
 556 245 521 201 521 150 c 4
30 550 m 4
 30 644 103 720 203 720 c 4
 303 720 376 644 376 550 c 4
 376 456 303 380 203 380 c 4
 103 380 30 456 30 550 c 4
116 550 m 4
 116 499 151 455 203 455 c 4
 255 455 290 499 290 550 c 4
 290 601 255 645 203 645 c 4
 151 645 116 601 116 550 c 4
435 150 m 4
 435 244 508 320 608 320 c 4
 708 320 781 244 781 150 c 4
 781 56 708 -20 608 -20 c 4
 508 -20 435 56 435 150 c 4
583 700 m 5
 678 700 l 5
 228 0 l 5
 133 0 l 5
 583 700 l 5
EndSplineSet
EndChar

StartChar: ampersand
Encoding: 38 38 80
Width: 675
VWidth: 0
Flags: HMW
LayerCount: 2
Fore
SplineSet
25 190 m 1
 133 200 l 1
 133 134 185 75 295 75 c 4
 432 75 530 226 591 326 c 1
 664 277 l 1
 588 157 484 -20 295 -20 c 4
 150 -20 25 61 25 190 c 1
132 556 m 1
 132 650 219 721 324 721 c 0
 439 721 506 648 506 554 c 1
 400 554 l 1
 400 590 376 625 324 625 c 0
 264 625 241 592 241 556 c 1
 132 556 l 1
243 344 m 2
 191.826171875 406.87109375 132 459 132 556 c 1
 241 556 l 1
 241 490 276.762695312 456.314453125 334 385 c 2
 664 0 l 1
 544 0 l 1
 243 344 l 2
506 554 m 1
 506 477.387695312 411.56640625 402.831054688 349 367.897460938 c 0
 274.935546875 326.543945312 133 320.408203125 133 200 c 1
 25 190 l 1
 25 357.497070312 212.1484375 395.19140625 284 425.337890625 c 0
 359.317382812 456.938476562 400 508.373046875 400 554 c 1
 506 554 l 1
EndSplineSet
EndChar

StartChar: question
Encoding: 63 63 81
Width: 557
VWidth: 0
Flags: HMW
LayerCount: 2
Fore
SplineSet
178 345 m 1
 288 345 l 5
 278 170 l 5
 198 170 l 1
 178 345 l 1
406 500 m 1
 512 500 l 1
 512 371 389 280 274 280 c 1
 224 345 l 1
 344 345 406 424 406 500 c 1
512 500 m 1
 406 500 l 1
 406 581 349 625 269 625 c 0
 212 625 164 596 133 546 c 1
 58 597 l 1
 104 667 160 720 279 720 c 0
 414 720 512 629 512 500 c 1
EndSplineSet
Refer: 54 46 N 1 0 0 1 100 0 2
EndChar

StartChar: parenleft
Encoding: 40 40 82
Width: 310
VWidth: 0
Flags: HMW
LayerCount: 2
Fore
SplineSet
195 780 m 5
 290 780 l 1
 220 630 190 460 190 290 c 0
 190 120 220 -50 290 -200 c 1
 195 -200 l 5
 115 -50 80 120 80 290 c 4
 80 460 115 630 195 780 c 5
EndSplineSet
EndChar

StartChar: asterisk
Encoding: 42 42 84
Width: 592
VWidth: 0
Flags: HMW
LayerCount: 2
Fore
SplineSet
466.005859375 612.8125 m 1
 496.90625 517.705078125 l 1
 306.815429688 471.712890625 l 1
 285.184570312 538.287109375 l 1
 466.005859375 612.8125 l 1
451.0703125 376.630859375 m 1
 370.166992188 317.852539062 l 1
 267.684570312 484.427734375 l 1
 324.315429688 525.572265625 l 1
 451.0703125 376.630859375 l 1
221.833007812 317.8515625 m 1
 140.930664062 376.630859375 l 1
 267.684570312 525.572265625 l 1
 324.315429688 484.427734375 l 1
 221.833007812 317.8515625 l 1
95.0927734375 517.705078125 m 1
 125.995117188 612.811523438 l 1
 306.815429688 538.287109375 l 1
 285.184570312 471.712890625 l 1
 95.0927734375 517.705078125 l 1
246 700 m 1
 346 700 l 1
 331 505 l 1
 261 505 l 1
 246 700 l 1
EndSplineSet
EndChar

StartChar: less
Encoding: 60 60 85
Width: 640
VWidth: 0
Flags: HMW
LayerCount: 2
Fore
SplineSet
65 285 m 1
 162 275 l 1
 162 240 l 1
 65 230 l 5
 65 285 l 1
165 240 m 1
 65 285 l 1
 575 495 l 1
 575 395 l 1
 165 240 l 1
65 230 m 5
 165 285 l 1
 575 120 l 1
 575 20 l 1
 65 230 l 5
EndSplineSet
EndChar

StartChar: bracketleft
Encoding: 91 91 87
Width: 310
VWidth: 0
Flags: HMW
LayerCount: 2
Fore
SplineSet
184 -215 m 1
 184 -130 l 1
 290 -130 l 1
 290 -215 l 1
 184 -215 l 1
184 690 m 1
 184 785 l 1
 290 785 l 1
 290 690 l 1
 184 690 l 1
85 785 m 5
 189 785 l 1
 189 -215 l 1
 85 -215 l 5
 85 785 l 5
EndSplineSet
EndChar

StartChar: asciicircum
Encoding: 94 94 89
Width: 510
VWidth: 0
Flags: HMW
LayerCount: 2
Fore
SplineSet
225 710 m 1
 285 710 l 1
 285 645 l 5
 225 645 l 5
 225 710 l 1
235 645 m 5
 285 710 l 1
 455 460 l 1
 355 460 l 1
 235 645 l 5
225 710 m 1
 275 645 l 5
 155 460 l 1
 55 460 l 1
 225 710 l 1
EndSplineSet
EndChar

StartChar: grave
Encoding: 96 96 91
Width: 375
VWidth: 0
Flags: HMW
LayerCount: 2
Fore
SplineSet
60 660 m 5
 160 700 l 1
 310 540 l 1
 240 510 l 5
 60 660 l 5
EndSplineSet
EndChar

StartChar: braceleft
Encoding: 123 123 92
Width: 346
VWidth: 0
Flags: HMW
LayerCount: 2
Fore
SplineSet
95 340 m 1
 95 240 l 1
 65 240 l 5
 65 340 l 5
 95 340 l 1
95 310 m 1
 204 310 233 179 233 90 c 1
 128 130 l 1
 128 206 95 230 65 240 c 5
 65 240 92.1455078125 294.525390625 95 310 c 1
256 -200 m 1
 286 -110 l 1
 316 -110 l 1
 316 -200 l 1
 256 -200 l 1
128 -60 m 1
 128 140 l 1
 233 90 l 1
 233 -60 l 1
 128 -60 l 1
286 -110 m 1
 256 -200 l 1
 212 -200 128 -159 128 -60 c 1
 233 -60 l 1
 233 -86 251 -110 281 -110 c 2
 286 -110 l 1
65 340 m 5
 95 350 128 374 128 450 c 1
 233 490 l 1
 233 401 204 270 95 270 c 1
 91.900390625 285.611328125 65 340 65 340 c 5
256 780 m 1
 316 780 l 1
 316 690 l 1
 286 690 l 1
 256 780 l 1
128 640 m 1
 233 640 l 1
 233 490 l 1
 128 440 l 1
 128 640 l 1
286 690 m 1
 281 690 l 2
 251 690 233 666 233 640 c 1
 128 640 l 1
 128 739 212 780 256 780 c 1
 286 690 l 1
EndSplineSet
EndChar

StartChar: asciitilde
Encoding: 126 126 94
Width: 575
VWidth: 0
Flags: HMW
LayerCount: 2
Fore
SplineSet
152 176 m 1
 58 181 l 1
 56 188 55 196 55 205 c 0
 55 226 63 261 81 285 c 0
 107 320 142 337 194 337 c 0
 233 337 280 316 322 284 c 0
 352 261 362 252 380 252 c 0
 394 252 406 256 414 266 c 0
 420 274 422 282 422 296 c 0
 422 304 421 313 417 323 c 1
 516 318 l 1
 518 310 520 300 520 290 c 0
 520 270 515 232 498 209 c 0
 472 175 440 162 394 162 c 0
 360 162 317 183 274 215 c 0
 244 238 228 248 203 248 c 0
 184 248 169 242 161 232 c 0
 154 223 148 214 148 198 c 0
 148 191 149 184 152 176 c 1
EndSplineSet
EndChar

StartChar: sterling
Encoding: 163 163 97
Width: 536
VWidth: 0
Flags: HMW
LayerCount: 2
Fore
SplineSet
35 0 m 1
 145 100 l 1
 488 100 l 1
 488 0 l 1
 35 0 l 1
72 518 m 1
 184 520 l 1
 184 404 279 376 279 264 c 0
 279 158 197 70 123 50 c 1
 35 0 l 1
 133 102 178 161 178 249 c 0
 178 343 72 382 72 518 c 1
38 370 m 1
 398 370 l 1
 398 275 l 1
 38 275 l 1
 38 370 l 1
411 479 m 1
 407 552 378 616 292 616 c 0
 232 616 184 586 184 520 c 1
 72 518 l 1
 72 647 163 720 297 720 c 0
 440 720 501 602 506 512 c 5
 411 479 l 1
EndSplineSet
EndChar

StartChar: currency
Encoding: 164 164 98
Width: 585
VWidth: 0
Flags: HMW
LayerCount: 2
Fore
SplineSet
30 493 m 1
 99 563 l 1
 193 469 l 1
 123 400 l 1
 30 493 l 1
99 37 m 1
 30 107 l 1
 123 200 l 1
 193 131 l 1
 99 37 l 1
461 400 m 1
 392 469 l 1
 486 563 l 1
 555 493 l 1
 461 400 l 1
392 131 m 1
 461 200 l 1
 555 107 l 1
 486 37 l 1
 392 131 l 1
39 300 m 0
 39 439 157 550 292 550 c 0
 427 550 545 439 545 300 c 0
 545 161 427 50 292 50 c 0
 157 50 39 161 39 300 c 0
145 300 m 0
 145 214 202 145 292 145 c 0
 382 145 439 214 439 300 c 0
 439 386 382 455 292 455 c 0
 202 455 145 386 145 300 c 0
EndSplineSet
EndChar

StartChar: brokenbar
Encoding: 166 166 100
Width: 299
VWidth: 0
Flags: HMW
LayerCount: 2
Fore
SplineSet
100 695 m 1
 199 695 l 1
 199 445 l 5
 100 445 l 5
 100 695 l 1
199 255 m 1
 199 5 l 1
 100 5 l 1
 100 255 l 1
 199 255 l 1
EndSplineSet
EndChar

StartChar: section
Encoding: 167 167 101
Width: 408
VWidth: 0
Flags: HMW
LayerCount: 2
Fore
SplineSet
210 275 m 1
 260 275 285 323 285 363 c 1
 388 370 l 5
 388 271 309 240 210 240 c 1
 210 275 l 1
300 569 m 1
 280 607 246 624 209 624 c 0
 169 624 149 610 149 589 c 1
 49 589 l 1
 49 665 114 720 208 720 c 0
 301 720 356 671 374 620 c 1
 300 569 l 1
49 589 m 1
 149 589 l 1
 149 553.373046875 199.897460938 527.5703125 251 506.337890625 c 0
 316.3359375 479.192382812 388 437.497070312 388 370 c 5
 285 363 l 1
 285 413.408203125 243.888671875 423.79296875 191 444.897460938 c 0
 127.65625 470.173828125 49 512.387695312 49 589 c 1
49 359 m 1
 149 369 l 1
 149 323.373046875 199.897460938 297.5703125 251 276.337890625 c 0
 316.3359375 249.192382812 388 217.497070312 388 130 c 1
 285 123 l 1
 285 173.408203125 243.888671875 183.79296875 191 204.897460938 c 0
 127.65625 230.173828125 49 262.387695312 49 359 c 1
96 161 m 1
 108 105 158 75 215 75 c 0
 265 75 285 93 285 123 c 1
 388 130 l 1
 388 21 309 -20 210 -20 c 0
 125 -20 34 42 20 117 c 1
 96 161 l 1
228 454 m 1
 168 434 149 410 149 369 c 1
 49 359 l 1
 49 435 114 480 228 480 c 1
 228 454 l 1
EndSplineSet
EndChar

StartChar: copyright
Encoding: 169 169 103
Width: 800
VWidth: 0
Flags: HMW
LayerCount: 2
Fore
SplineSet
95 350 m 0
 95 172 227 40 400 40 c 0
 573 40 705 172 705 350 c 0
 705 528 573 660 400 660 c 0
 227 660 95 528 95 350 c 0
40 350 m 0
 40 559 196 710 400 710 c 0
 604 710 760 559 760 350 c 0
 760 141 604 -10 400 -10 c 0
 196 -10 40 141 40 350 c 0
EndSplineSet
Refer: 3 67 S 0.6 0 0 0.6 166 140 2
EndChar

StartChar: registered
Encoding: 174 174 104
Width: 800
VWidth: 0
Flags: HMW
LayerCount: 2
Fore
SplineSet
95 350 m 0
 95 172 227 40 400 40 c 0
 573 40 705 172 705 350 c 0
 705 528 573 660 400 660 c 0
 227 660 95 528 95 350 c 0
40 350 m 0
 40 559 196 710 400 710 c 0
 604 710 760 559 760 350 c 0
 760 141 604 -10 400 -10 c 0
 196 -10 40 141 40 350 c 0
EndSplineSet
Refer: 13 82 S 0.6 0 0 0.6 226 150 2
EndChar

StartChar: logicalnot
Encoding: 172 172 110
Width: 620
VWidth: 0
Flags: HMW
LayerCount: 2
Fore
SplineSet
460 375 m 5
 555 375 l 1
 555 175 l 1
 460 175 l 5
 460 375 l 5
EndSplineSet
Refer: 62 45 N 2.45 0 0 1 52.75 100 2
EndChar

StartChar: plusminus
Encoding: 177 177 113
Width: 615
VWidth: 0
Flags: HMW
LayerCount: 2
Fore
SplineSet
65 70 m 5
 65 150 l 5
 550 150 l 5
 550 70 l 5
 65 70 l 5
65 335 m 5
 65 415 l 5
 550 415 l 5
 550 335 l 5
 65 335 l 5
265 570 m 5
 350 570 l 5
 350 180 l 5
 265 180 l 5
 265 570 l 5
EndSplineSet
Validated: 5
EndChar

StartChar: acute
Encoding: 180 180 116
Width: 375
VWidth: 0
Flags: HMW
LayerCount: 2
Fore
SplineSet
315 660 m 1
 135 510 l 1
 65 540 l 5
 215 700 l 5
 315 660 l 1
EndSplineSet
EndChar

StartChar: paragraph
Encoding: 182 182 118
Width: 598
VWidth: 0
Flags: HMW
LayerCount: 2
Fore
SplineSet
288 615 m 5
 288 700 l 1
 488 700 l 1
 488 615 l 5
 288 615 l 5
448 700 m 1
 538 700 l 1
 538 -220 l 1
 448 -220 l 1
 448 700 l 1
288 700 m 1
 378 700 l 1
 378 -220 l 1
 288 -220 l 1
 288 700 l 1
288 270 m 1
 163 270 60 346 60 485 c 0
 60 624 163 700 288 700 c 1
 288 270 l 1
EndSplineSet
EndChar

StartChar: cedilla
Encoding: 184 184 121
Width: 350
Flags: HMW
LayerCount: 2
Fore
SplineSet
186 60 m 1
 257 60 l 1
 201.799804688 -53.7998046875 l 1
 106.799804688 -107.799804688 l 1
 186 60 l 1
275.200195312 -126 m 5
 218.400390625 -126 l 1
 218.400390625 -102.400390625 202.200195312 -90 168.200195312 -90 c 0
 158 -90 129.400390625 -91.7998046875 106.799804688 -107.799804688 c 1
 150.799804688 -68.2001953125 l 1
 176.400390625 -52.2001953125 188.799804688 -52 202.200195312 -52 c 0
 235.200195312 -52 275.200195312 -76.599609375 275.200195312 -126 c 5
275.200195312 -126 m 5
 275.200195312 -187.400390625 233.200195312 -230 168.200195312 -230 c 0
 130.799804688 -230 97.400390625 -217.799804688 69.7998046875 -189.799804688 c 1
 112 -152.400390625 l 1
 130.599609375 -168.400390625 142 -176 168.200195312 -176 c 0
 202.200195312 -176 218.400390625 -149.599609375 218.400390625 -126 c 1
 275.200195312 -126 l 5
EndSplineSet
EndChar

StartChar: multiply
Encoding: 215 215 123
Width: 596
VWidth: 0
Flags: HMW
LayerCount: 2
Fore
SplineSet
276 273 m 1
 321 273 l 1
 321 232 l 1
 276 232 l 1
 276 273 l 1
270 212 m 1
 341 283 l 1
 541 88 l 1
 465 12 l 1
 270 212 l 1
55 422 m 1
 131 498 l 1
 326 298 l 1
 255 227 l 1
 55 422 l 1
341 227 m 1
 270 298 l 5
 465 498 l 5
 541 422 l 1
 341 227 l 1
131 12 m 1
 55 88 l 5
 255 283 l 5
 326 212 l 1
 131 12 l 1
EndSplineSet
EndChar

StartChar: Thorn
Encoding: 222 222 125
Width: 590
VWidth: 0
Flags: HMW
LayerCount: 2
Fore
SplineSet
295 130 m 5
 295 230 l 1
 385 230 438 264 438 350 c 0
 438 436 385 470 295 470 c 1
 295 570 l 5
 460 570 548 489 548 350 c 0
 548 211 460 130 295 130 c 5
127 130 m 1
 127 230 l 1
 295 230 l 1
 295 130 l 1
 127 130 l 1
127 470 m 1
 127 570 l 1
 295 570 l 1
 295 470 l 1
 127 470 l 1
80 700 m 1
 190 700 l 1
 190 0 l 1
 80 0 l 1
 80 700 l 1
EndSplineSet
EndChar

StartChar: circumflex
Encoding: 710 710 128
Width: 480
VWidth: 0
Flags: HMW
LayerCount: 2
Fore
SplineSet
200 680 m 1
 240 750 l 1
 410 600 l 1
 340 550 l 1
 200 680 l 1
240 750 m 1
 280 680 l 1
 140 550 l 1
 70 600 l 5
 240 750 l 1
EndSplineSet
EndChar

StartChar: ogonek
Encoding: 731 731 129
Width: 260
VWidth: 0
Flags: HMW
LayerCount: 2
Fore
SplineSet
194 -130 m 1
 227 -180 l 1
 212 -200 182 -220 139 -220 c 0
 55 -220 16 -179 16 -120 c 1
 96 -100 l 5
 96 -136 114 -150 144 -150 c 4
 170 -150 180 -143 194 -130 c 1
96 -100 m 1
 16 -120 l 1
 16 -61 77.7509765625 -11 147.750976562 25 c 1
 188.750976562 0 l 1
 136.690429688 -22.27734375 96.296875 -62.6220703125 96 -100 c 1
EndSplineSet
Validated: 5
EndChar

StartChar: tilde
Encoding: 732 732 130
Width: 530
VWidth: 0
Flags: HMW
LayerCount: 2
Fore
SplineSet
80 625 m 1
 90 674.352539062 134.494140625 717 189 717 c 0
 228 717 256.184570312 696.529296875 272 687 c 0
 295.749023438 672.690429688 315 660 333 660 c 4
 352.408203125 660 374 676.29296875 394 708 c 1
 450 665 l 1
 434 628.231445312 388.641601562 582 339 582 c 0
 305 582 283.999023438 594.616210938 261 607 c 0
 239.208984375 618.733398438 213 639 188 639 c 0
 152.361328125 639 143 602.698242188 143 588 c 1
 80 625 l 1
EndSplineSet
EndChar

StartChar: ring
Encoding: 730 730 131
Width: 278
VWidth: 0
Flags: HMW
LayerCount: 2
Fore
SplineSet
35 785 m 4
 35 844.5 76.5 885 139 885 c 4
 201.5 885 243 844.5 243 785 c 0
 243 725.5 201.5 685 139 685 c 4
 76.5 685 35 725.5 35 785 c 4
85.5 785 m 4
 85.5 752 104 727.5 139 727.5 c 0
 174 727.5 192.5 752 192.5 785 c 4
 192.5 818 174 842.5 139 842.5 c 0
 104 842.5 85.5 818 85.5 785 c 4
EndSplineSet
EndChar

StartChar: quoteright
Encoding: 8217 8217 138
Width: 295
VWidth: 0
Flags: HMW
LayerCount: 2
Fore
SplineSet
140 700 m 1
 255 700 l 1
 150 470 l 5
 80 470 l 1
 140 700 l 1
EndSplineSet
EndChar

StartChar: perthousand
Encoding: 8240 8240 143
Width: 1221
VWidth: 0
Flags: HMW
LayerCount: 2
Fore
SplineSet
931 150 m 4
 931 99 966 55 1018 55 c 4
 1070 55 1105 99 1105 150 c 4
 1105 201 1070 245 1018 245 c 4
 966 245 931 201 931 150 c 4
845 150 m 4
 845 244 918 320 1018 320 c 4
 1118 320 1191 244 1191 150 c 4
 1191 56 1118 -20 1018 -20 c 4
 918 -20 845 56 845 150 c 4
521 150 m 4
 521 99 556 55 608 55 c 4
 660 55 695 99 695 150 c 4
 695 201 660 245 608 245 c 4
 556 245 521 201 521 150 c 4
30 550 m 4
 30 644 103 720 203 720 c 4
 303 720 376 644 376 550 c 4
 376 456 303 380 203 380 c 4
 103 380 30 456 30 550 c 4
116 550 m 4
 116 499 151 455 203 455 c 4
 255 455 290 499 290 550 c 4
 290 601 255 645 203 645 c 4
 151 645 116 601 116 550 c 4
435 150 m 4
 435 244 508 320 608 320 c 4
 708 320 781 244 781 150 c 4
 781 56 708 -20 608 -20 c 4
 508 -20 435 56 435 150 c 4
583 700 m 5
 678 700 l 5
 228 0 l 5
 133 0 l 5
 583 700 l 5
EndSplineSet
EndChar

StartChar: guilsinglleft
Encoding: 8249 8249 144
Width: 350
VWidth: 0
Flags: HMW
LayerCount: 2
Fore
SplineSet
110 235 m 5
 40 255 l 5
 230 490 l 5
 280 445 l 5
 110 235 l 5
40 255 m 5
 110 285 l 5
 280 65 l 5
 230 20 l 5
 40 255 l 5
EndSplineSet
Validated: 5
EndChar

StartChar: uni2031
Encoding: 8241 8241 146
Width: 1631
VWidth: 0
Flags: HMW
LayerCount: 2
Fore
SplineSet
1341 150 m 4
 1341 99 1376 55 1428 55 c 4
 1480 55 1515 99 1515 150 c 4
 1515 201 1480 245 1428 245 c 4
 1376 245 1341 201 1341 150 c 4
1255 150 m 4
 1255 244 1328 320 1428 320 c 4
 1528 320 1601 244 1601 150 c 4
 1601 56 1528 -20 1428 -20 c 4
 1328 -20 1255 56 1255 150 c 4
931 150 m 0
 931 99 966 55 1018 55 c 0
 1070 55 1105 99 1105 150 c 0
 1105 201 1070 245 1018 245 c 0
 966 245 931 201 931 150 c 0
845 150 m 0
 845 244 918 320 1018 320 c 0
 1118 320 1191 244 1191 150 c 0
 1191 56 1118 -20 1018 -20 c 0
 918 -20 845 56 845 150 c 0
521 150 m 0
 521 99 556 55 608 55 c 0
 660 55 695 99 695 150 c 0
 695 201 660 245 608 245 c 0
 556 245 521 201 521 150 c 0
30 550 m 0
 30 644 103 720 203 720 c 0
 303 720 376 644 376 550 c 0
 376 456 303 380 203 380 c 0
 103 380 30 456 30 550 c 0
116 550 m 0
 116 499 151 455 203 455 c 0
 255 455 290 499 290 550 c 0
 290 601 255 645 203 645 c 0
 151 645 116 601 116 550 c 0
435 150 m 0
 435 244 508 320 608 320 c 0
 708 320 781 244 781 150 c 0
 781 56 708 -20 608 -20 c 0
 508 -20 435 56 435 150 c 0
583 700 m 1
 678 700 l 1
 228 0 l 1
 133 0 l 1
 583 700 l 1
EndSplineSet
EndChar

StartChar: Euro
Encoding: 8364 8364 148
Width: 700
VWidth: 0
Flags: HMW
LayerCount: 2
Fore
SplineSet
135 350 m 0
 135 187 212 80 340 80 c 0
 396.579101562 80 449.0546875 102.859375 490 142.448242188 c 1
 490 20.6279296875 l 5
 445.012695312 -5.5390625 393.84765625 -20 340 -20 c 4
 156 -20 30 141 30 350 c 0
 30 559 156 720 340 720 c 4
 393.84765625 720 445.012695312 705.5390625 490 679.372070312 c 1
 490 557.551757812 l 1
 449.0546875 597.140625 396.579101562 620 340 620 c 0
 212 620 135 513 135 350 c 0
EndSplineSet
Refer: 62 45 N 2.375 0 0 0.64 -26.875 159 2
Refer: 62 45 N 2.505 0 0 0.64 -27.525 279 2
EndChar

StartChar: fraction
Encoding: 8260 8260 149
Width: 705
VWidth: 0
Flags: HMW
LayerCount: 2
Fore
SplineSet
560 700 m 1
 645 700 l 1
 145 0 l 5
 60 0 l 1
 560 700 l 1
EndSplineSet
EndChar

StartChar: AE
Encoding: 198 198 191
Width: 1030
VWidth: 0
Flags: HMW
LayerCount: 2
Fore
SplineSet
262 190 m 5
 262 290 l 5
 562 290 l 5
 562 190 l 5
 262 190 l 5
450 700 m 5
 549 660 l 5
 145 0 l 5
 20 0 l 5
 450 700 l 5
607 0 m 5
 607 100 l 5
 960 100 l 5
 960 0 l 5
 607 0 l 5
615 600 m 5
 450 700 l 5
 960 700 l 5
 960 600 l 5
 615 600 l 5
607 330 m 5
 607 430 l 5
 940 430 l 5
 940 330 l 5
 607 330 l 5
535 700 m 5
 645 700 l 5
 645 0 l 5
 535 0 l 5
 535 700 l 5
EndSplineSet
EndChar

StartChar: germandbls
Encoding: 223 223 219
Width: 605
VWidth: 0
Flags: HMW
LayerCount: 2
Fore
SplineSet
70 606 m 1
 175 606 l 1
 175 0 l 1
 70 0 l 1
 70 606 l 1
267 425 m 5
 267 500 l 1
 377 500 419 540 419 596 c 0
 419 662 382 705 292 705 c 0
 232 705 175 682 175 606 c 1
 70 606 l 1
 70 715 167 800 292 800 c 4
 447 800 525 715 525 606 c 0
 525 487 442 425 267 425 c 5
287 85 m 1
 367 85 459 129 459 235 c 0
 459 321 377 385 267 385 c 1
 267 460 l 5
 442 460 565 364 565 225 c 0
 565 86 442 -10 287 -10 c 5
 287 85 l 1
EndSplineSet
EndChar

StartChar: ae
Encoding: 230 230 220
Width: 825
VWidth: 0
Flags: HMW
LayerCount: 2
Fore
SplineSet
350 330 m 5
 416 330 l 5
 416 130 l 5
 350 130 l 5
 350 330 l 5
350 230 m 1
 380 270 l 1
 476 270 l 1
 466 230 l 1
 350 230 l 1
456 205 m 1
 456 289 l 1
 804 289 l 1
 823 205 l 1
 456 205 l 1
823 205 m 1
 715 250 l 1
 715 336 673 390 593 390 c 0
 523 390 458 336 458 260 c 1
 350 230 l 1
 350 369 448 480 593 480 c 0
 733 480 825 384 825 239 c 0
 825 231 825 218 823 205 c 1
350 230 m 1
 456 230 l 1
 456 134 515 75 593 75 c 0
 650 75 704 96 735 146 c 1
 814 97 l 1
 768 27 702 -20 593 -20 c 0
 438 -20 350 91 350 230 c 1
111 338 m 1
 72 419 l 1
 106 444 170 480 253 480 c 0
 368 480 455 429 455 330 c 1
 350 330 l 1
 350 370 303 383 253 383 c 0
 187 383 133 354 111 338 c 1
126 140 m 0
 126 94 178 71 223 71 c 0
 303 71 350 94 350 180 c 1
 416 130 l 1
 416 41 318 -20 203 -20 c 0
 108 -20 25 21 25 130 c 0
 25 237 120 291 231 291 c 0
 309 291 359 264 383 240 c 1
 383 182 l 1
 335 207 293 215 245 215 c 0
 171 215 126 178 126 140 c 0
EndSplineSet
EndChar

StartChar: dotlessi
Encoding: 305 305 227
Width: 260
VWidth: 0
Flags: HMW
LayerCount: 2
Fore
SplineSet
77 460 m 1
 183 460 l 5
 183 0 l 5
 77 0 l 1
 77 460 l 1
EndSplineSet
EndChar

StartChar: kgreenlandic
Encoding: 312 312 228
Width: 485
VWidth: 0
Flags: HMW
LayerCount: 2
Fore
SplineSet
140 270 m 1
 270 270 l 1
 490 0 l 1
 360 0 l 1
 140 270 l 1
340 460 m 1
 470 460 l 1
 270 270 l 1
 140 270 l 1
 340 460 l 1
65 460 m 5
 170 460 l 5
 170 0 l 1
 65 0 l 1
 65 460 l 5
EndSplineSet
EndChar

StartChar: thorn
Encoding: 254 254 243
Width: 595
VWidth: 0
Flags: HMW
LayerCount: 2
Fore
SplineSet
565 230 m 0
 565 71 457 -20 332 -20 c 0
 217 -20 134 81 134 230 c 0
 134 379 217 480 332 480 c 0
 457 480 565 389 565 230 c 0
459 230 m 0
 459 326 397 385 312 385 c 0
 242 385 170 336 170 230 c 0
 170 124 242 75 312 75 c 0
 397 75 459 134 459 230 c 0
170 -220 m 1
 65 -220 l 1
 65 780 l 1
 170 780 l 1
 170 -220 l 1
EndSplineSet
EndChar

StartChar: breve
Encoding: 728 728 247
Width: 546
VWidth: 0
Flags: HMW
LayerCount: 2
Fore
SplineSet
105 850 m 1
 191 850 l 5
 191 824 203 780 273 780 c 0
 343 780 355 824 355 850 c 1
 441 850 l 1
 441 771 378 700 273 700 c 0
 168 700 105 771 105 850 c 1
EndSplineSet
EndChar

StartChar: eth
Encoding: 240 240 302
Width: 556
VWidth: 0
Flags: HMW
LayerCount: 2
Fore
SplineSet
246 700 m 5
 472 385 l 5
 368 375 l 5
 122 700 l 5
 246 700 l 5
531 230 m 4
 531 81 418 -20 278 -20 c 4
 138 -20 25 81 25 230 c 4
 25 359 128 463 237 463 c 4
 320.3203125 463 340.96484375 430.188476562 385 402.0078125 c 5
 413.711914062 386.671875 450.24609375 415.376953125 472 385 c 4
 498.814453125 347.556640625 531 286.768554688 531 230 c 4
422 230 m 4
 422 321 363 382 278 382 c 4
 193 382 134 321 134 230 c 4
 134 139 193 80 278 80 c 4
 363 80 422 139 422 230 c 4
EndSplineSet
Refer: 62 45 N 1.5 0 0 1 137.5 320 2
EndChar

StartChar: oe
Encoding: 339 339 303
Width: 935
VWidth: 0
Flags: HW
LayerCount: 2
Fore
SplineSet
30 230 m 0
 30 379 143 480 283 480 c 0
 423 480 506 359 506 230 c 0
 506 101 423 -20 283 -20 c 0
 143 -20 30 81 30 230 c 0
136 230 m 0
 136 139 198 75 283 75 c 0
 368 75 430 139 430 230 c 0
 430 321 368 385 283 385 c 0
 198 385 136 321 136 230 c 0
440 230 m 1
 470 270 l 1
 556 270 l 1
 546 230 l 1
 440 230 l 1
536 205 m 1
 536 289 l 1
 884 289 l 1
 903 205 l 1
 536 205 l 1
903 205 m 1
 795 250 l 1
 795 336 753 390 673 390 c 0
 603 390 538 336 538 260 c 1
 440 230 l 1
 440 369 528 480 673 480 c 0
 813 480 905 384 905 239 c 0
 905 231 905 218 903 205 c 1
440 230 m 1
 536 230 l 1
 536 134 595 75 673 75 c 0
 730 75 784 96 815 146 c 1
 894 97 l 1
 848 27 782 -20 673 -20 c 0
 518 -20 440 91 440 230 c 1
EndSplineSet
EndChar

StartChar: OE
Encoding: 338 338 304
Width: 1000
VWidth: 0
Flags: HW
LayerCount: 2
Fore
SplineSet
548 700 m 5
 548 600 l 5
 385 600 l 5
 385 700 l 5
 548 700 l 5
548 100 m 5
 548 0 l 5
 385 0 l 5
 385 100 l 5
 548 100 l 5
385 600 m 5
 237 600 140 513 140 350 c 4
 140 187 237 100 385 100 c 5
 385 0 l 5
 171 0 30 141 30 350 c 4
 30 559 171 700 385 700 c 5
 385 600 l 5
582 0 m 5
 582 100 l 5
 935 100 l 5
 935 0 l 5
 582 0 l 5
582 600 m 5
 582 700 l 5
 935 700 l 5
 935 600 l 5
 582 600 l 5
582 330 m 5
 582 430 l 5
 915 430 l 5
 915 330 l 5
 582 330 l 5
510 700 m 5
 620 700 l 5
 620 0 l 5
 510 0 l 5
 510 700 l 5
EndSplineSet
EndChar

StartChar: a.alt
Encoding: 65536 -1 305
Width: 595
VWidth: 0
Flags: HW
LayerCount: 2
Fore
SplineSet
425 460 m 5
 530 460 l 5
 530 0 l 1
 425 0 l 1
 425 460 l 5
30 230 m 0
 30 389 138 480 263 480 c 0
 378 480 461 379 461 230 c 0
 461 81 378 -20 263 -20 c 0
 138 -20 30 71 30 230 c 0
136 230 m 0
 136 134 198 75 283 75 c 0
 353 75 425 124 425 230 c 0
 425 336 353 385 283 385 c 0
 198 385 136 326 136 230 c 0
EndSplineSet
EndChar
